<svg xmlns="http://www.w3.org/2000/svg" viewBox="0 0 64 64">
  <defs>
    <linearGradient id="bg" x1="10" y1="8" x2="54" y2="56" gradientUnits="userSpaceOnUse">
      <stop offset="0" stop-color="#10a37f"/>
      <stop offset="1" stop-color="#95ec69"/>
    </linearGradient>
    <filter id="shadow" x="-20%" y="-20%" width="140%" height="140%">
      <feDropShadow dx="0" dy="3" stdDeviation="3" flood-color="#052e2b" flood-opacity="0.22"/>
    </filter>
  </defs>
  <rect x="6" y="6" width="52" height="52" rx="16" fill="url(#bg)"/>
  <g filter="url(#shadow)">
    <path d="M18 20.5h28a6 6 0 0 1 6 6v12a6 6 0 0 1-6 6H32.5L22 51v-6.5h-4a6 6 0 0 1-6-6v-12a6 6 0 0 1 6-6Z" fill="#ffffff"/>
    <rect x="20" y="27" width="24" height="12" rx="3" fill="#e7fbf2" stroke="#0f766e" stroke-width="2"/>
    <circle cx="26" cy="31" r="2" fill="#10a37f"/>
    <path d="m21.5 37 5.2-4.6 4.2 3.8 2.8-2.6L42.5 37" fill="none" stroke="#0f766e" stroke-width="2" stroke-linecap="round" stroke-linejoin="round"/>
  </g>
</svg>
